# xmcd
# Copyright (C) 1995-1998 Ti Kan
#
# Track frame offsets:
#       150
#       20262
#       33052
#       45099
#       67195
#       80516
#       90580
#       101172
#       114019
#       126153
#       145242
#       157611
#       171913
#       187357
#       199893
#       213517
#       230704
#       251404
#       268356
#       280819
#       292702
#
# Disc length: 4199 seconds
#
# Revision: 0
# Processed by: cddbd v1.5.2PL0 Copyright (c) Steve Scherf et al.
# Submitted via: CD-Import v1.0
#
DISCID=27106515
DTITLE=Various Artist - Beatschuppen
DYEAR=2005
DGENRE=
TTITLE0=D.r. Hooker - Forge Your Own Chains
TTITLE1=Timebox - Beggin'
TTITLE2=Georgie Fame - No Thanks
TTITLE3=The Village Callers - I Don't Need No Doctor
TTITLE4=David Bowie - In The Heart Of The Morning
TTITLE5=The Left Banke - I Haven't Got The Nerve
TTITLE6=The Tower - Slow Motion Mind
TTITLE7=Cindy and Bert - Der Hund Von Baskerville (Paranoid)
TTITLE8=Terry Reid - Superlungs My Supergild
TTITLE9=The Remo Four - Heart Beat
TTITLE10=T.c. Atlantic - My Babe
TTITLE11=The Remains - Why Do We Cry?
TTITLE12=Orchestra Harlow - Freak Off
TTITLE13=Masha Gee/ Peanut Duck
TTITLE14=Bobby Valentin - Use It Befor You Lose It
TTITLE15=Ray Barretto - The Soul Drummers
TTITLE16=Young Holt Trio - Ain't There Something Money Can't Buy?
TTITLE17=The New York Rock Ensemble - Fields Of Joy
TTITLE18=The Guess Who - In My Pride
TTITLE19=The Sonics - Have Love Will Travel
TTITLE20=Miracle Workers - When A Woman Calls My Name
EXTD=
EXTT0=
EXTT1=
EXTT2=
EXTT3=
EXTT4=
EXTT5=
EXTT6=
EXTT7=
EXTT8=
EXTT9=
EXTT10=
EXTT11=
EXTT12=
EXTT13=
EXTT14=
EXTT15=
EXTT16=
EXTT17=
EXTT18=
EXTT19=
EXTT20=
PLAYORDER=
